<svg width="1280" height="860" viewBox="0 0 1280 860" fill="none" xmlns="http://www.w3.org/2000/svg">
  <defs>
    <linearGradient id="bg" x1="92" y1="38" x2="1176" y2="792" gradientUnits="userSpaceOnUse">
      <stop stop-color="#F7ECE3"/>
      <stop offset="0.5" stop-color="#E8D1BF"/>
      <stop offset="1" stop-color="#D7B89B"/>
    </linearGradient>
  </defs>
  <rect width="1280" height="860" rx="36" fill="url(#bg)"/>
  <rect x="52" y="52" width="1176" height="756" rx="34" fill="#FFF8F2" fill-opacity="0.28" stroke="#7A4F32" stroke-opacity="0.16" stroke-width="2"/>

  <text x="74" y="94" fill="#5C3A27" font-family="Arial, sans-serif" font-size="42" font-weight="700">What You Can Do In One Session</text>
  <text x="74" y="132" fill="#8F664B" font-family="Arial, sans-serif" font-size="22" font-weight="600">
    <tspan x="74" dy="0">The README should prove the workflow quickly.</tspan>
    <tspan x="74" dy="30">These are the main loops Mimu Chess is built around.</tspan>
  </text>

  <rect x="72" y="198" width="354" height="586" rx="30" fill="#4B3425"/>
  <rect x="463" y="198" width="354" height="586" rx="30" fill="#FFF7EF" stroke="#D1AB89" stroke-width="2"/>
  <rect x="854" y="198" width="354" height="586" rx="30" fill="#6A4832"/>

  <text x="108" y="248" fill="#E7C5A6" font-family="Arial, sans-serif" font-size="18" font-weight="700" letter-spacing="1.5">WORKFLOW 01</text>
  <text x="108" y="290" fill="#FFF6EE" font-family="Arial, sans-serif" font-size="32" font-weight="700">Play vs AI</text>
  <rect x="108" y="328" width="284" height="70" rx="18" fill="#5A3E2E"/>
  <text x="135" y="371" fill="#FFF2E6" font-family="Arial, sans-serif" font-size="22" font-weight="700">1. Pick your engine</text>
  <path d="M250 410L250 446" stroke="#C8A07D" stroke-width="4" stroke-linecap="round"/>
  <rect x="108" y="454" width="284" height="70" rx="18" fill="#5A3E2E"/>
  <text x="135" y="497" fill="#FFF2E6" font-family="Arial, sans-serif" font-size="22" font-weight="700">2. Choose side + time</text>
  <path d="M250 536L250 572" stroke="#C8A07D" stroke-width="4" stroke-linecap="round"/>
  <rect x="108" y="580" width="284" height="70" rx="18" fill="#5A3E2E"/>
  <text x="135" y="623" fill="#FFF2E6" font-family="Arial, sans-serif" font-size="22" font-weight="700">3. Play, undo, export PGN</text>
  <text x="108" y="702" fill="#E8D5C4" font-family="Arial, sans-serif" font-size="20" font-weight="600">
    <tspan x="108" dy="0">Perfect for testing lines against</tspan>
    <tspan x="108" dy="28">your own engine build.</tspan>
  </text>

  <text x="499" y="248" fill="#A36D44" font-family="Arial, sans-serif" font-size="18" font-weight="700" letter-spacing="1.5">WORKFLOW 02</text>
  <text x="499" y="290" fill="#5C3A27" font-family="Arial, sans-serif" font-size="32" font-weight="700">Engine Match</text>
  <rect x="499" y="328" width="282" height="70" rx="18" fill="#F2E1D2"/>
  <text x="526" y="371" fill="#5C3A27" font-family="Arial, sans-serif" font-size="22" font-weight="700">1. Select both engines</text>
  <path d="M640 410L640 446" stroke="#C49A77" stroke-width="4" stroke-linecap="round"/>
  <rect x="499" y="454" width="282" height="70" rx="18" fill="#F2E1D2"/>
  <text x="526" y="497" fill="#5C3A27" font-family="Arial, sans-serif" font-size="22" font-weight="700">2. Set games + colors</text>
  <path d="M640 536L640 572" stroke="#C49A77" stroke-width="4" stroke-linecap="round"/>
  <rect x="499" y="580" width="282" height="70" rx="18" fill="#F2E1D2"/>
  <text x="526" y="623" fill="#5C3A27" font-family="Arial, sans-serif" font-size="22" font-weight="700">3. Watch score + live PV</text>
  <text x="499" y="702" fill="#8F664B" font-family="Arial, sans-serif" font-size="20" font-weight="600">
    <tspan x="499" dy="0">Built for local engine bake-offs</tspan>
    <tspan x="499" dy="28">without cloud infrastructure.</tspan>
  </text>

  <text x="890" y="248" fill="#F0CFB1" font-family="Arial, sans-serif" font-size="18" font-weight="700" letter-spacing="1.5">WORKFLOW 03</text>
  <text x="890" y="290" fill="#FFF6EE" font-family="Arial, sans-serif" font-size="32" font-weight="700">Review + Analyze</text>
  <rect x="890" y="328" width="282" height="70" rx="18" fill="#7A5640"/>
  <text x="917" y="371" fill="#FFF2E6" font-family="Arial, sans-serif" font-size="22" font-weight="700">1. Open a saved PGN</text>
  <path d="M1031 410L1031 446" stroke="#E4C4A6" stroke-width="4" stroke-linecap="round"/>
  <rect x="890" y="454" width="282" height="70" rx="18" fill="#7A5640"/>
  <text x="917" y="497" fill="#FFF2E6" font-family="Arial, sans-serif" font-size="22" font-weight="700">2. Jump to any move</text>
  <path d="M1031 536L1031 572" stroke="#E4C4A6" stroke-width="4" stroke-linecap="round"/>
  <rect x="890" y="580" width="282" height="70" rx="18" fill="#7A5640"/>
  <text x="917" y="623" fill="#FFF2E6" font-family="Arial, sans-serif" font-size="22" font-weight="700">3. Inspect eval + line</text>
  <text x="890" y="702" fill="#F6E8DC" font-family="Arial, sans-serif" font-size="20" font-weight="600">
    <tspan x="890" dy="0">History stays on disk, so your games</tspan>
    <tspan x="890" dy="28">remain inspectable outside the app.</tspan>
  </text>
</svg>
